<?xml version="1.0" encoding="UTF-8" standalone="no"?>
<svg
   width="95"
   height="100"
   viewBox="0.32101717 0.30000004 95.000003 100"
   version="1.1"
   xml:space="preserve"
   id="svg8536"
   sodipodi:docname="black_cat.svg"
   inkscape:version="1.1.2 (b8e25be833, 2022-02-05)"
   xmlns:inkscape="http://www.inkscape.org/namespaces/inkscape"
   xmlns:sodipodi="http://sodipodi.sourceforge.net/DTD/sodipodi-0.dtd"
   xmlns="http://www.w3.org/2000/svg"
   xmlns:svg="http://www.w3.org/2000/svg"><defs
   id="defs8540" /><sodipodi:namedview
   id="namedview8538"
   pagecolor="#ffffff"
   bordercolor="#666666"
   borderopacity="1.0"
   inkscape:pageshadow="2"
   inkscape:pageopacity="0.0"
   inkscape:pagecheckerboard="0"
   showgrid="false"
   width="95.17898px"
   inkscape:zoom="5.527278"
   inkscape:cx="36.003255"
   inkscape:cy="56.085473"
   inkscape:window-width="1920"
   inkscape:window-height="986"
   inkscape:window-x="-11"
   inkscape:window-y="-11"
   inkscape:window-maximized="1"
   inkscape:current-layer="costume1.1" />
  <!-- Generator: Sketch 52.5 (67469) - http://www.bohemiancoding.com/sketch -->
  <g
   id="g8534">
    <title
   id="title8493">costume1.1</title>
    <desc
   id="desc8495">Created with Sketch.</desc>
    <g
   id="Page-1"
   stroke="none"
   fill-rule="evenodd">
      <g
   id="costume1">
        <g
   id="costume1.1">
          <g
   id="tail"
   transform="matrix(0.99810986,0,0,0.99952231,0.00102912,-2.8357998e-4)">
            <path
   d="M 21.9,73.8 C 19.5,73.3 16.6,72.5 14.2,70.3 8.7,65.4 7,57.3 3.2,59.4 c -3.9,2.1 -3.8,15.2 8.4,19.2 4.2,1.4 8,1.4 11.1,1.3 0.8,0 7.7,-0.7 10.1,-4.1 2.4,-3.4 0.7,-4.3 -0.1,-4.7 -0.9,-0.5 -7.4,3.3 -10.8,2.7 z"
   stroke="#000000"
   stroke-width="1.2"
   fill="#000000"
   stroke-linecap="round"
   stroke-linejoin="round"
   id="path8497" />
            
          </g>
          <path
   d="m 37.62977,81.460784 c -1.796597,1.199427 -7.984879,5.597326 -15.869946,8.096131 l -0.399245,0.09995 c -0.399243,0.09995 -0.598865,0.599714 -0.399243,0.999523 1.696786,2.398852 4.790928,7.19656 -0.698677,8.895748 C 14.972677,101.25132 5.0913893,87.158061 9.2834506,83.459828 c 1.8964094,-1.39933 3.5931954,-0.699664 4.4914944,-0.299855 0.499054,0.199904 0.99811,0.199904 1.497165,0.09995 1.197731,-0.399809 3.393573,-1.199426 5.09036,-2.098996 4.291872,-2.19895 5.289982,-3.098519 7.286202,-4.597802 1.996219,-1.499285 6.587524,-5.197518 10.28053,-1.999046 3.193952,2.698711 1.397356,5.697277 -0.299432,6.896705 z"
   id="leg"
   stroke="#000000"
   stroke-width="1.19857"
   fill="#000000"
   stroke-linecap="round"
   stroke-linejoin="round" />
          <path
   d="m 53.499717,60.67072 c 0.499055,0.399809 6.587525,7.59637 8.583745,5.79723 2.395463,-2.098998 5.689225,-6.197039 9.282421,-2.898615 3.593196,3.298423 -3.193951,8.895749 -6.088469,10.395031 -6.88696,3.09852 -12.476375,-2.798662 -13.674105,-4.397897 -1.197733,-1.599236 -3.293764,-4.297946 -3.293764,-6.896703 0.09981,-2.798664 3.493385,-3.498329 5.190172,-1.999046 z"
   id="arm"
   stroke="#000000"
   stroke-width="1.19857"
   fill="#000000"
   stroke-linecap="round"
   stroke-linejoin="round" />
          <g
   id="body-and-leg"
   transform="matrix(0.99810986,0,0,0.99952231,0.00102912,-2.8357998e-4)">
            <path
   d="m 46.2,76.7 c 1.2,-0.9 2.4,-2.4 4,-4.7 1.3,-1.9 2.7,-5.6 2.7,-5.6 0.9,-2.5 1.5,-7.3 -1.8,-7.2 -2.2,0.1 -4.2,-0.2 -7.6,-0.7 -6,-1.2 -7.1,-2 -9.6,2.1 -2.7,4.8 -9.6,8.3 -1.1,16.6 0,0 4.9,3.8 10.8,9.6 4,3.9 10.3,9.5 12.5,11.4 0.5,0.4 1.1,0.6 1.7,0.7 9.7,0.9 16.9,-0.1 16.9,-4.4 0,-7.2 -14.3,-4.7 -14.3,-4.7 0,0 -4.6,-3.9 -6.7,-5.8 z"
   id="body"
   stroke="#000000"
   stroke-width="1.2"
   fill="#000000"
   stroke-linecap="round"
   stroke-linejoin="round" />
            
          </g>
          <path
   d="m 30.143946,68.367043 c 2.195842,2.798661 5.589416,6.29699 1.297543,9.195604 -5.888848,3.298424 -10.779586,-6.696798 -11.777696,-10.195127 -0.898299,-3.098519 1.696786,-5.097564 3.892628,-6.796751 4.291872,-3.09852 7.885068,-5.897182 11.877508,-4.397899 4.990549,1.799139 1.397353,5.79723 -1.097921,7.59637 -1.497165,1.099474 -2.99433,2.298901 -4.09225,2.998567 -0.299433,0.49976 -0.399245,1.099474 -0.09981,1.599236 z"
   id="path8506"
   stroke="#000000"
   stroke-width="1.19857"
   fill="#000000"
   stroke-linecap="round"
   stroke-linejoin="round" />
          <g
   id="head"
   transform="matrix(0.99810986,0,0,0.99952231,0.00102912,-2.8357998e-4)">
            <path
   d="M 53.1,9 C 50.8,8.6 48.4,8.4 45.6,8.6 40.9,8.8 36.4,10.5 36.4,10.5 L 24.3,2.6 C 23.9,2.4 23.4,2.7 23.5,3.1 L 25.6,21 C 26.2,20.2 15,33.8 22.1,45.2 29.2,56.6 44.3,61.7 63.1,58 81.9,54.3 86.3,43.5 85.1,37.8 83.9,32.1 76.8,30 76.8,30 c 0,0 -0.1,-4.5 -3.3,-10 -1.9,-3.3 -8.3,-8 -8.3,-8 L 62.6,1.3 C 62.5,0.9 62,0.8 61.7,1 Z"
   stroke="#000000"
   stroke-width="1.2"
   fill="#000000"
   id="path8508" />
            
            
            <path
   d="m 83,35.4 c 0,0 7.2,-0.1 11.9,-3.9"
   id="whisker"
   stroke="#000000"
   stroke-width="1.2"
   stroke-linecap="round"
   stroke-linejoin="round"
   fill="none" />
            <path
   d="m 83.4,41.3 c 0,0 3.9,1.9 10.2,1.4"
   id="path8513"
   stroke="#000000"
   stroke-width="1.2"
   stroke-linecap="round"
   stroke-linejoin="round"
   fill="none" />
            
            <path
   d="m 14.6,31.2 c 0,0 8.6,2.8 12.1,5.9"
   id="path8516"
   stroke="#000000"
   stroke-width="1.2"
   stroke-linecap="round"
   stroke-linejoin="round"
   fill="none" />
            <path
   d="m 15.3,41.2 c 0,0 7.4,1.1 11.7,-0.6"
   id="path8518"
   stroke="#000000"
   stroke-width="1.2"
   stroke-linecap="round"
   stroke-linejoin="round"
   fill="none" />
            
            
          </g>
        </g>
      </g>
    </g>
  </g>
</svg>
