<?xml version="1.0" encoding="UTF-8" standalone="no"?>
<svg
   width="95.178978"
   height="100.04156"
   viewBox="0.32101717 0.30000004 95.178981 100.04156"
   version="1.1"
   xml:space="preserve"
   id="svg8536"
   sodipodi:docname="black_cat.svg"
   inkscape:version="1.1.2 (b8e25be833, 2022-02-05)"
   xmlns:inkscape="http://www.inkscape.org/namespaces/inkscape"
   xmlns:sodipodi="http://sodipodi.sourceforge.net/DTD/sodipodi-0.dtd"
   xmlns="http://www.w3.org/2000/svg"
   xmlns:svg="http://www.w3.org/2000/svg"><defs
   id="defs8540" /><sodipodi:namedview
   id="namedview8538"
   pagecolor="#ffffff"
   bordercolor="#666666"
   borderopacity="1.0"
   inkscape:pageshadow="2"
   inkscape:pageopacity="0.0"
   inkscape:pagecheckerboard="0"
   showgrid="false"
   width="95.17898px"
   inkscape:zoom="5.527278"
   inkscape:cx="9.9506483"
   inkscape:cy="63.684149"
   inkscape:window-width="1920"
   inkscape:window-height="986"
   inkscape:window-x="-11"
   inkscape:window-y="-11"
   inkscape:window-maximized="1"
   inkscape:current-layer="costume1.1" />
  <!-- Generator: Sketch 52.5 (67469) - http://www.bohemiancoding.com/sketch -->
  <g
   id="g8534">
    <title
   id="title8493">costume1.1</title>
    <desc
   id="desc8495">Created with Sketch.</desc>
    <g
   id="Page-1"
   stroke="none"
   fill-rule="evenodd">
      <g
   id="costume1">
        <g
   id="costume1.1">
          <g
   id="tail">
            <path
   d="M 21.9,73.8 C 19.5,73.3 16.6,72.5 14.2,70.3 8.7,65.4 7,57.3 3.2,59.4 c -3.9,2.1 -3.8,15.2 8.4,19.2 4.2,1.4 8,1.4 11.1,1.3 0.8,0 7.7,-0.7 10.1,-4.1 2.4,-3.4 0.7,-4.3 -0.1,-4.7 -0.9,-0.5 -7.4,3.3 -10.8,2.7 z"
   stroke="#000000"
   stroke-width="1.2"
   fill="#000000"
   stroke-linecap="round"
   stroke-linejoin="round"
   id="path8497" />
            
          </g>
          <path
   d="m 37.7,81.5 c -1.8,1.2 -8,5.6 -15.9,8.1 l -0.4,0.1 c -0.4,0.1 -0.6,0.6 -0.4,1 1.7,2.4 4.8,7.2 -0.7,8.9 -5.3,1.7 -15.2,-12.4 -11,-16.1 1.9,-1.4 3.6,-0.7 4.5,-0.3 0.5,0.2 1,0.2 1.5,0.1 1.2,-0.4 3.4,-1.2 5.1,-2.1 4.3,-2.2 5.3,-3.1 7.3,-4.6 2,-1.5 6.6,-5.2 10.3,-2 3.2,2.7 1.4,5.7 -0.3,6.9 z"
   id="leg"
   stroke="#000000"
   stroke-width="1.2"
   fill="#000000"
   stroke-linecap="round"
   stroke-linejoin="round" />
          <path
   d="m 53.6,60.7 c 0.5,0.4 6.6,7.6 8.6,5.8 2.4,-2.1 5.7,-6.2 9.3,-2.9 3.6,3.3 -3.2,8.9 -6.1,10.4 -6.9,3.1 -12.5,-2.8 -13.7,-4.4 -1.2,-1.6 -3.3,-4.3 -3.3,-6.9 0.1,-2.8 3.5,-3.5 5.2,-2 z"
   id="arm"
   stroke="#000000"
   stroke-width="1.2"
   fill="#000000"
   stroke-linecap="round"
   stroke-linejoin="round" />
          <g
   id="body-and-leg">
            <path
   d="m 46.2,76.7 c 1.2,-0.9 2.4,-2.4 4,-4.7 1.3,-1.9 2.7,-5.6 2.7,-5.6 0.9,-2.5 1.5,-7.3 -1.8,-7.2 -2.2,0.1 -4.2,-0.2 -7.6,-0.7 -6,-1.2 -7.1,-2 -9.6,2.1 -2.7,4.8 -9.6,8.3 -1.1,16.6 0,0 4.9,3.8 10.8,9.6 4,3.9 10.3,9.5 12.5,11.4 0.5,0.4 1.1,0.6 1.7,0.7 9.7,0.9 16.9,-0.1 16.9,-4.4 0,-7.2 -14.3,-4.7 -14.3,-4.7 0,0 -4.6,-3.9 -6.7,-5.8 z"
   id="body"
   stroke="#000000"
   stroke-width="1.2"
   fill="#000000"
   stroke-linecap="round"
   stroke-linejoin="round" />
            
          </g>
          <path
   d="m 30.2,68.4 c 2.2,2.8 5.6,6.3 1.3,9.2 -5.9,3.3 -10.8,-6.7 -11.8,-10.2 -0.9,-3.1 1.7,-5.1 3.9,-6.8 4.3,-3.1 7.9,-5.9 11.9,-4.4 5,1.8 1.4,5.8 -1.1,7.6 -1.5,1.1 -3,2.3 -4.1,3 -0.3,0.5 -0.4,1.1 -0.1,1.6 z"
   id="path8506"
   stroke="#000000"
   stroke-width="1.2"
   fill="#000000"
   stroke-linecap="round"
   stroke-linejoin="round" />
          <g
   id="head">
            <path
   d="M 53.1,9 C 50.8,8.6 48.4,8.4 45.6,8.6 40.9,8.8 36.4,10.5 36.4,10.5 L 24.3,2.6 C 23.9,2.4 23.4,2.7 23.5,3.1 L 25.6,21 C 26.2,20.2 15,33.8 22.1,45.2 29.2,56.6 44.3,61.7 63.1,58 81.9,54.3 86.3,43.5 85.1,37.8 83.9,32.1 76.8,30 76.8,30 c 0,0 -0.1,-4.5 -3.3,-10 -1.9,-3.3 -8.3,-8 -8.3,-8 L 62.6,1.3 C 62.5,0.9 62,0.8 61.7,1 Z"
   stroke="#000000"
   stroke-width="1.2"
   fill="#000000"
   id="path8508" />
            
            
            <path
   d="m 83,35.4 c 0,0 7.2,-0.1 11.9,-3.9"
   id="whisker"
   stroke="#000000"
   stroke-width="1.2"
   stroke-linecap="round"
   stroke-linejoin="round"
   fill="none" />
            <path
   d="m 83.4,41.3 c 0,0 3.9,1.9 10.2,1.4"
   id="path8513"
   stroke="#000000"
   stroke-width="1.2"
   stroke-linecap="round"
   stroke-linejoin="round"
   fill="none" />
            
            <path
   d="m 14.6,31.2 c 0,0 8.6,2.8 12.1,5.9"
   id="path8516"
   stroke="#000000"
   stroke-width="1.2"
   stroke-linecap="round"
   stroke-linejoin="round"
   fill="none" />
            <path
   d="m 15.3,41.2 c 0,0 7.4,1.1 11.7,-0.6"
   id="path8518"
   stroke="#000000"
   stroke-width="1.2"
   stroke-linecap="round"
   stroke-linejoin="round"
   fill="none" />
            
            
          </g>
        </g>
      </g>
    </g>
  </g>
</svg>
